<svg width="100" height="32" viewBox="0 0 100 32" fill="none" xmlns="http://www.w3.org/2000/svg">
<path d="M17.107 16.002C12.9614 16.002 9.60059 19.3608 9.60059 23.5074C9.60059 23.8284 9.62675 24.1423 9.667 24.4512C10.1319 28.1511 13.2823 31.0128 17.107 31.0128C21.0373 31.0128 24.2562 27.9921 24.5822 24.1474C24.6013 23.935 24.6144 23.7227 24.6144 23.5054C24.6154 19.3608 21.2546 16.002 17.107 16.002ZM13.3467 20.6799L14.8782 22.2104C14.7585 22.4146 14.6659 22.636 14.6055 22.8705H12.4472C12.5609 22.0524 12.8738 21.3088 13.3467 20.6799ZM12.4411 24.1715H14.6146C14.677 24.4019 14.7655 24.6213 14.8863 24.8215L13.3528 26.355C12.8778 25.7301 12.5569 24.9845 12.4411 24.1715ZM16.458 28.1712C15.6439 28.0595 14.9054 27.7396 14.2805 27.2696L15.8069 25.7422C16.0072 25.8589 16.2275 25.9445 16.458 26.0058V28.1712ZM16.458 21.012C16.2215 21.0744 16.0001 21.1659 15.7939 21.2877L14.2634 19.7572C14.8923 19.2793 15.6379 18.9643 16.458 18.8506V21.012ZM17.757 18.8506C18.575 18.9643 19.3217 19.2813 19.9505 19.7582L18.4211 21.2877C18.2148 21.1659 17.9924 21.0724 17.757 21.012V18.8506ZM17.757 28.1702V26.0058C17.9874 25.9445 18.2068 25.8589 18.407 25.7402L19.9355 27.2696C19.3106 27.7385 18.571 28.0585 17.757 28.1702ZM20.8672 26.361L19.3277 24.8205C19.4464 24.6203 19.546 24.4039 19.6074 24.1705H21.7648C21.65 24.9845 21.3421 25.7362 20.8672 26.361ZM19.6084 22.8715C19.5471 22.637 19.4555 22.4156 19.3357 22.2114L20.8672 20.6809C21.3411 21.3098 21.6541 22.0534 21.7668 22.8735L19.6084 22.8715Z" fill="#0038C8"/>
<path d="M79.0997 16.0674C74.9712 16.0674 71.6255 19.4121 71.6255 23.5416C71.6255 23.8605 71.6506 24.1725 71.6899 24.4814C72.1527 28.1641 75.2901 31.0158 79.0987 31.0158C83.0119 31.0158 86.2167 28.0082 86.5407 24.1795C86.5598 23.9682 86.5729 23.7569 86.5729 23.5416C86.5749 19.4121 83.2292 16.0674 79.0997 16.0674ZM75.3565 20.7252L76.882 22.2506C76.7632 22.4539 76.6707 22.6742 76.6103 22.9077H74.461C74.5727 22.0906 74.8846 21.351 75.3565 20.7252ZM74.454 24.2017H76.6173C76.6797 24.4321 76.7683 24.6484 76.888 24.8497L75.3596 26.3791C74.8897 25.7553 74.5687 25.0107 74.454 24.2017ZM78.4537 28.1853C77.6437 28.0726 76.9091 27.7536 76.2863 27.2837L77.8057 25.7643C78.0049 25.88 78.2253 25.9666 78.4547 26.0259V28.1853H78.4537ZM78.4537 21.0552C78.2192 21.1166 77.9979 21.2082 77.7936 21.3289L76.2702 19.8055C76.8961 19.3316 77.6387 19.0166 78.4537 18.9029V21.0552ZM79.7477 18.9029C80.5647 19.0166 81.3063 19.3336 81.9312 19.8065L80.4088 21.3289C80.2035 21.2082 79.9831 21.1146 79.7477 21.0552V18.9029ZM79.7477 28.1843V26.0259C79.9781 25.9666 80.1965 25.879 80.3967 25.7623L81.9171 27.2837C81.2942 27.7526 80.5587 28.0706 79.7477 28.1843ZM82.8438 26.3821L81.3113 24.8487C81.4291 24.6484 81.5287 24.4341 81.5891 24.2017H83.7363C83.6226 25.0107 83.3167 25.7583 82.8438 26.3821ZM81.5911 22.9067C81.5307 22.6732 81.4401 22.4528 81.3194 22.2496L82.8448 20.7242C83.3167 21.35 83.6277 22.0896 83.7394 22.9067H81.5911Z" fill="#0038C8"/>
<path d="M99.9699 18.3244C99.9437 17.3352 99.6368 16.3713 99.0824 15.5482L98.6779 14.9445L96.91 10.2806C96.5769 9.40021 95.7639 8.78742 94.8271 8.70893C93.0884 8.56203 90.1351 8.33864 87.3157 8.235C77.4608 3.00166 59.2382 -2.25985 43.7847 3.47459C40.6141 4.65085 31.5551 9.2543 31.5551 9.2543C31.5551 9.2543 16.8442 8.882 6.35233 12.6241C2.21878 14.0982 -0.388331 18.2016 0.0473613 22.5696C0.134902 23.444 0.263698 24.2218 0.390482 24.8497C0.590719 25.8428 1.41079 26.5914 2.41801 26.7031L8.94535 27.4186C8.53481 26.5613 8.24603 25.6345 8.12226 24.6464C8.06994 24.2429 8.04378 23.8696 8.04378 23.5074C8.04378 18.5095 12.1099 14.4434 17.1078 14.4434C22.1067 14.4434 26.1738 18.5105 26.1738 23.5074C26.1738 23.769 26.1567 24.0246 26.1356 24.2802C26.04 25.4021 25.7341 26.4657 25.2622 27.4347H70.5873L70.9546 27.4135C70.5521 26.5663 70.2673 25.6496 70.1456 24.6766C70.0932 24.2711 70.0681 23.8988 70.0681 23.5426C70.0681 18.5618 74.1191 14.5088 79.1009 14.5088C84.0827 14.5088 88.1347 18.5598 88.1347 23.5426C88.1347 23.8032 88.1176 24.0568 88.0965 24.3114C88.0341 25.0499 87.8721 25.7583 87.6407 26.4345L88.66 26.3731L95.6824 25.4444C96.9039 25.2824 97.9816 24.5629 98.5984 23.4963L99.2977 22.2899C99.7797 21.4547 100.023 20.5018 99.997 19.5379L99.9699 18.3244ZM75.0941 9.33581H40.7207C40.7207 9.33581 40.925 8.52178 40.0264 7.5387C40.0264 7.5387 48.8137 1.87067 62.3846 3.28642C66.1187 3.67683 70.6819 3.94147 76.8943 7.17043L75.0941 9.33581Z" fill="#0038C8"/>
</svg>
