<svg width="25" height="26" viewBox="0 0 25 26" fill="none" xmlns="http://www.w3.org/2000/svg">
<g clip-path="url(#clip0)">
<path d="M21.338 0.990052L3.66223 0.990051C1.64311 0.990051 0.000122004 2.63304 0.000121923 4.65216L0.00012121 22.3279C0.000121128 24.3471 1.64311 25.9901 3.66223 25.9901L11.0353 25.9901L11.0353 17.1522L8.10559 17.1522L8.10559 12.7576L11.0353 12.7576L11.0353 9.77911C11.0353 7.35583 13.0065 5.38458 15.4298 5.38458L19.8732 5.38458L19.8732 9.77911L15.4298 9.77911L15.4298 12.7576L19.8732 12.7576L19.1407 17.1522L15.4298 17.1522L15.4298 25.9901L21.338 25.9901C23.3571 25.9901 25.0001 24.3471 25.0001 22.3279L25.0001 4.65216C25.0001 2.63304 23.3571 0.990052 21.338 0.990052Z" fill="white" fill-opacity="0.7"/>
</g>
<defs>
<clipPath id="clip0">
<rect width="25" height="25" fill="white" transform="translate(0.00012207 0.990051)"/>
</clipPath>
</defs>
</svg>
