<svg width="25" height="26" viewBox="0 0 25 26" fill="none" xmlns="http://www.w3.org/2000/svg">
<g clip-path="url(#clip0)">
<path d="M21.3376 0.990479L3.66177 0.990479C1.64265 0.990479 -0.00033576 2.63347 -0.000335841 4.65259L-0.000336554 22.3284C-0.000336636 24.3475 1.64265 25.9905 3.66177 25.9905L21.3376 25.9905C23.3567 25.9905 24.9997 24.3475 24.9997 22.3284L24.9997 4.65259C24.9997 2.63347 23.3567 0.990479 21.3376 0.990479ZM12.5485 20.0334C8.91366 20.0334 5.95669 17.0765 5.9567 13.4417C5.9567 9.80682 8.91366 6.84985 12.5485 6.84985C16.1833 6.84985 19.1403 9.80682 19.1403 13.4417C19.1403 17.0765 16.1833 20.0334 12.5485 20.0334ZM19.8727 8.3147C18.6612 8.3147 17.6754 7.32898 17.6754 6.11743C17.6754 4.90588 18.6612 3.92017 19.8727 3.92017C21.0843 3.92017 22.07 4.90588 22.07 6.11743C22.07 7.32898 21.0843 8.3147 19.8727 8.3147Z" fill="white" fill-opacity="0.7"/>
<path d="M19.8727 5.38501C19.4685 5.38501 19.1403 5.71326 19.1403 6.11743C19.1403 6.5216 19.4685 6.84985 19.8727 6.84985C20.2768 6.84985 20.6051 6.5216 20.6051 6.11743C20.6051 5.71326 20.2768 5.38501 19.8727 5.38501Z" fill="white" fill-opacity="0.7"/>
<path d="M12.5485 8.3147C9.72177 8.3147 7.42151 10.615 7.42151 13.4417C7.42151 16.2683 9.72177 18.5686 12.5485 18.5686C15.3752 18.5686 17.6754 16.2683 17.6754 13.4417C17.6754 10.615 15.3752 8.3147 12.5485 8.3147Z" fill="white" fill-opacity="0.7"/>
</g>
<defs>
<clipPath id="clip0">
<rect width="25" height="25" fill="white" transform="translate(-0.000335693 0.990479)"/>
</clipPath>
</defs>
</svg>
