<svg width="25" height="26" viewBox="0 0 25 26" fill="none" xmlns="http://www.w3.org/2000/svg">
<g clip-path="url(#clip0)">
<path d="M22.9942 17.3996C21.4636 17.3996 19.9607 17.1602 18.5366 16.6895C17.8387 16.4515 16.9808 16.6699 16.5549 17.1073L13.7439 19.2293C10.484 17.4891 8.4759 15.4817 6.75949 12.2462L8.81906 9.50848C9.35415 8.97411 9.54608 8.19351 9.31613 7.46109C8.84348 6.02945 8.60337 4.5273 8.60337 2.99605C8.60344 1.88986 7.7035 0.98993 6.59738 0.989929L2.00624 0.989929C0.900118 0.989929 0.000183069 1.88986 0.000183025 2.99598C0.000182513 15.675 10.3152 25.9899 22.9942 25.9899C24.1003 25.9899 25.0002 25.09 25.0002 23.9839L25.0002 19.4056C25.0002 18.2995 24.1002 17.3996 22.9942 17.3996Z" fill="#F6F6F6"/>
</g>
<defs>
<clipPath id="clip0">
<rect width="25" height="25" fill="white" transform="translate(0.000183105 0.989929)"/>
</clipPath>
</defs>
</svg>
