<svg width="100" height="48" viewBox="0 0 100 48" fill="none" xmlns="http://www.w3.org/2000/svg">
<path d="M15.2168 26.2444C9.33115 26.2444 4.55762 31.016 4.55762 36.9037C4.55762 37.3588 4.59496 37.8029 4.65248 38.2439C5.31351 43.4968 9.78529 47.5619 15.2168 47.5619C20.7937 47.5619 25.3674 43.2727 25.8296 37.813C25.8538 37.5122 25.875 37.2105 25.875 36.9037C25.875 31.016 21.1035 26.2444 15.2168 26.2444ZM11.2093 33.8851L12.8412 35.518C12.714 35.736 12.6141 35.9712 12.5515 36.2214H10.2505C10.3686 35.3515 10.7027 34.5542 11.2093 33.8851ZM10.2404 37.6091H12.5596C12.6242 37.8563 12.7211 38.0885 12.8492 38.3034L11.2133 39.9393C10.7067 39.2702 10.3646 38.477 10.2404 37.6091ZM14.5245 41.874C13.6576 41.7529 12.8684 41.4128 12.2023 40.9092L13.8282 39.2834C14.0431 39.4095 14.2773 39.5003 14.5235 39.5629L14.5245 41.874ZM14.5245 34.2404C14.2712 34.304 14.0371 34.4059 13.8171 34.5351L12.1872 32.9032C12.8573 32.3945 13.6526 32.0575 14.5245 31.9364V34.2404ZM15.9112 31.9374C16.7831 32.0585 17.5794 32.3955 18.2485 32.9052L16.6176 34.5361C16.3996 34.4069 16.1625 34.305 15.9112 34.2414V31.9374ZM15.9112 41.872V39.5629C16.1574 39.5003 16.3905 39.4065 16.6055 39.2813L18.2323 40.9082C17.5663 41.4118 16.7761 41.7509 15.9112 41.872ZM19.2244 39.9434L17.5834 38.3014C17.7126 38.0854 17.8155 37.8574 17.8811 37.6081H20.1821C20.058 38.475 19.732 39.2783 19.2244 39.9434ZM17.8842 36.2224C17.8206 35.9712 17.7207 35.737 17.5945 35.519L19.2274 33.8861C19.732 34.5562 20.0661 35.3515 20.1851 36.2224H17.8842Z" fill="#0038C8"/>
<path d="M81.0249 26.2444C75.1403 26.2444 70.3657 31.016 70.3657 36.9037C70.3657 37.3588 70.4031 37.8029 70.4616 38.2439C71.1226 43.4968 75.5934 47.5619 81.0249 47.5619C86.6028 47.5619 91.1775 43.2727 91.6387 37.813C91.662 37.5122 91.6842 37.2105 91.6842 36.9037C91.6842 31.016 86.9126 26.2444 81.0249 26.2444ZM77.0174 33.8851L78.6503 35.518C78.5221 35.736 78.4222 35.9712 78.3586 36.2214H76.0597C76.1777 35.3515 76.5108 34.5542 77.0174 33.8851ZM76.0496 37.6091H78.3687C78.4313 37.8563 78.5302 38.0885 78.6584 38.3034L77.0214 39.9393C76.5148 39.2702 76.1737 38.477 76.0496 37.6091ZM80.3326 41.874C79.4667 41.7529 78.6765 41.4128 78.0104 40.9092L79.6373 39.2834C79.8512 39.4095 80.0854 39.5003 80.3316 39.5629V41.874H80.3326ZM80.3326 34.2404C80.0803 34.304 79.8462 34.4059 79.6262 34.5351L77.9963 32.9032C78.6664 32.3945 79.4617 32.0575 80.3326 31.9364V34.2404ZM81.7203 31.9374C82.5932 32.0585 83.3875 32.3955 84.0566 32.9052L82.4277 34.5361C82.2077 34.4069 81.9706 34.305 81.7203 34.2414V31.9374ZM81.7203 41.872V39.5629C81.9665 39.5003 82.2007 39.4065 82.4146 39.2813L84.0425 40.9082C83.3754 41.4118 82.5852 41.7509 81.7203 41.872ZM85.0335 39.9434L83.3915 38.3014C83.5217 38.0854 83.6236 37.8574 83.6913 37.6081H85.9902C85.8671 38.475 85.5421 39.2783 85.0335 39.9434ZM83.6933 36.2224C83.6297 35.9712 83.5298 35.737 83.4036 35.519L85.0375 33.8861C85.5421 34.5562 85.8752 35.3515 85.9932 36.2224H83.6933Z" fill="#0038C8"/>
<path d="M76.6128 0.439113L48.017 0.799399C47.1592 0.809491 46.4729 1.51392 46.484 2.37174C46.4931 3.21644 47.1784 3.89463 48.018 3.90472C48.0321 3.90472 48.0432 3.90472 48.0564 3.90472L76.6522 3.54443C77.51 3.53434 78.1962 2.82992 78.1861 1.97209C78.174 1.11427 77.4464 0.406818 76.6128 0.439113Z" fill="#0038C8"/>
<path d="M65.3023 36.612H31.5404C30.6826 36.612 29.9883 37.3073 29.9883 38.1652C29.9883 39.024 30.6826 39.7183 31.5404 39.7183H65.3023C66.1602 39.7183 66.8545 39.024 66.8545 38.1652C66.8545 37.3073 66.1602 36.612 65.3023 36.612Z" fill="#0038C8"/>
<path d="M99.566 27.7492C99.2057 27.3092 98.6628 27.0548 98.0946 27.0548H96.3295L94.5362 7.41776C94.4373 6.33387 93.5209 5.50935 92.431 5.5255L41.9425 6.2824C41.1574 6.29452 40.4186 6.66186 39.9362 7.28253L33.2442 15.884L11.3303 17.2414C10.1385 17.316 9.04751 17.9367 8.3774 18.9247L7.14315 20.7403C7.14315 20.7403 5.02987 21.484 4.46371 21.9523C3.97223 22.359 2.99431 24.0404 2.99431 24.0404C2.80861 24.3027 2.78641 24.6489 2.93476 24.9325C3.08211 25.2181 3.3768 25.3967 3.69873 25.3967V27.3102H1.8751C0.838649 27.3112 0 28.1508 0 29.1853V32.6408C0 33.9245 1.04049 34.967 2.32622 34.967H3.57258L6.78488 26.1042C7.07755 25.2968 7.84454 24.7589 8.70237 24.7589H19.9146C20.5504 24.7589 21.1509 25.0556 21.5364 25.5622L29.0893 35.4767H68.5128L74.0453 26.1415C74.4116 25.5219 75.0777 25.1424 75.7993 25.1424H86.0942C86.8208 25.1424 87.4919 25.5289 87.8583 26.1567L93.2827 35.4777H95.2285C97.2741 35.4777 99.0362 34.0295 99.4318 32.0211L99.9606 29.3306C100.075 28.7705 99.9294 28.1912 99.566 27.7492ZM51.538 17.8671H39.9039V14.2935H37.5474L41.0736 9.63801C41.225 9.43718 41.4611 9.31809 41.7124 9.31405L53.514 9.13845V14.2935L51.538 17.8671ZM70.7765 17.8671H58.2301V9.06781L73.3611 8.84276V15.2815L70.7765 17.8671ZM77.2425 17.8671V8.78422L90.2682 8.59046C90.4903 8.58743 90.6739 8.75798 90.6911 8.979L91.3027 17.8671H77.2425Z" fill="#0038C8"/>
</svg>
