<svg width="100" height="38" viewBox="0 0 100 38" fill="none" xmlns="http://www.w3.org/2000/svg">
<path d="M14.0626 24.1944C10.3939 24.2298 7.4494 27.2307 7.4837 30.8984C7.48672 31.1819 7.51295 31.4593 7.55027 31.7316C7.99209 35.0029 10.8044 37.5096 14.1887 37.4763C17.6678 37.4451 20.4892 34.7457 20.7454 31.3382C20.7595 31.1516 20.7706 30.963 20.7686 30.7713C20.7343 27.1046 17.7313 24.1602 14.0626 24.1944ZM13.5108 26.7223L13.529 28.6328C13.3202 28.6903 13.1255 28.7741 12.9439 28.885L11.5781 27.5444C12.1299 27.1167 12.7876 26.8292 13.5108 26.7223ZM10.7742 28.3645L12.143 29.7071C12.0381 29.8917 11.9574 30.0864 11.907 30.2932L9.99845 30.3134C10.0902 29.5861 10.3606 28.9254 10.7742 28.3645ZM10.0015 31.4603L11.9251 31.4411C11.9816 31.6469 12.0633 31.8406 12.1712 32.0161L10.8266 33.386C10.4029 32.8392 10.1094 32.1815 10.0015 31.4603ZM11.6548 34.1889L12.9934 32.8231C13.1719 32.926 13.3686 33.0016 13.5724 33.0521L13.5905 34.9666C12.8693 34.8748 12.2116 34.5995 11.6548 34.1889ZM18.2438 30.2347L16.3332 30.2539C16.2788 30.0451 16.194 29.8544 16.0871 29.6708L17.4297 28.305C17.8544 28.8527 18.1368 29.5104 18.2438 30.2347ZM14.6608 26.7102C15.3871 26.805 16.0488 27.0784 16.6086 27.495L15.269 28.8608C15.0854 28.7549 14.8887 28.6732 14.6789 28.6207L14.6608 26.7102ZM14.7395 34.9565L14.7213 33.043C14.9261 32.9855 15.1187 32.9078 15.2963 32.8019L16.6601 34.1425C16.1103 34.5631 15.4587 34.8526 14.7395 34.9565ZM17.4761 33.3285L16.1012 31.9788C16.2051 31.8002 16.2909 31.6086 16.3433 31.4018L18.2518 31.3826C18.157 32.1039 17.8907 32.7727 17.4761 33.3285Z" fill="#0038C8"/>
<path d="M78.3439 24.1944C74.6751 24.2298 71.7296 27.2307 71.766 30.8984C71.768 31.1819 71.7942 31.4593 71.8315 31.7316C72.2733 35.0029 75.0857 37.5096 78.4699 37.4763C81.949 37.4451 84.7704 34.7457 85.0267 31.3382C85.0408 31.1516 85.0519 30.963 85.0499 30.7713C85.0146 27.1046 82.0126 24.1602 78.3439 24.1944ZM77.7931 26.7223L77.8113 28.6328C77.6024 28.6903 77.4088 28.7741 77.2272 28.885L75.8614 27.5444C76.4122 27.1167 77.0688 26.8292 77.7931 26.7223ZM75.0554 28.3645L76.4232 29.7071C76.3183 29.8917 76.2376 30.0864 76.1882 30.2932L74.2787 30.3134C74.3725 29.5861 74.6418 28.9254 75.0554 28.3645ZM74.2837 31.4603L76.2064 31.4411C76.2639 31.6469 76.3446 31.8406 76.4525 32.0161L75.1079 33.386C74.6842 32.8392 74.3917 32.1815 74.2837 31.4603ZM75.936 34.1889L77.2736 32.8231C77.4532 32.926 77.6499 33.0016 77.8526 33.0521L77.8708 34.9666C77.1515 34.8748 76.4939 34.5995 75.936 34.1889ZM82.525 30.2347L80.6145 30.2539C80.56 30.0451 80.4753 29.8544 80.3684 29.6708L81.711 28.305C82.1357 28.8527 82.4191 29.5104 82.525 30.2347ZM78.943 26.7102C79.6703 26.805 80.331 27.0784 80.8919 27.495L79.5523 28.8608C79.3677 28.7549 79.172 28.6732 78.9612 28.6207L78.943 26.7102ZM79.0217 34.9565L79.0036 33.043C79.2083 32.9855 79.401 32.9078 79.5785 32.8019L80.9423 34.1425C80.3926 34.5631 79.7399 34.8526 79.0217 34.9565ZM81.7574 33.3285L80.3835 31.9788C80.4874 31.8002 80.5731 31.6086 80.6246 31.4018L82.5331 31.3826C82.4383 32.1039 82.173 32.7727 81.7574 33.3285Z" fill="#0038C8"/>
<path d="M99.1991 26.6789L96.9072 25.6732C96.9072 25.6732 98.9045 13.7894 93.6047 3.05154C93.3787 2.59459 92.9732 2.25162 92.485 2.10737C84.9629 -0.112833 41.2004 0.143386 30.6642 1.97725C29.7534 2.13663 28.8929 2.52499 28.1737 3.10601C25.1395 5.55923 17.3138 12.4055 17.3138 12.4055C17.3138 12.4055 8.37847 13.9841 5.40677 14.549C2.81636 15.0413 1.59782 16.402 1.60892 18.2208C1.62001 19.8327 1.65128 24.6695 1.65128 24.6695L0.663741 24.9671C0.26933 25.0841 0 25.4483 0 25.8608V28.5551C0 28.5551 0.302618 30.1217 1.65229 31.0981C1.85 31.2424 3.43875 31.3402 5.99687 31.4108C5.98376 31.2474 5.96056 31.087 5.95854 30.9186C5.91617 26.4156 9.54456 22.7166 14.0475 22.6733C18.5888 22.6733 22.2525 26.3017 22.2938 30.7632C22.2959 30.9963 22.2666 31.4572 22.2666 31.4572L70.2587 31.1445C70.2587 31.1445 70.2416 30.9973 70.2406 30.9166C70.1982 26.4136 73.8266 22.7146 78.3306 22.6713C82.8718 22.6713 86.5355 26.2996 86.5759 30.7612C86.5789 30.9721 86.5527 31.3887 86.5527 31.3887L92.9288 30.3355V31.5329C92.9288 31.8063 93.1517 32.0292 93.4261 32.0292H94.5488C94.8222 32.0292 95.0451 31.8063 95.0451 31.5329V30.2508H98.6644C99.4018 30.2508 100 29.6516 100 28.9143V27.9065C99.999 27.3729 99.6843 26.8918 99.1991 26.6789ZM37.9815 12.8634C37.9624 13.1751 37.7041 13.4182 37.3914 13.4182H26.3701C26.3701 13.4182 26.3822 10.4828 26.3227 9.74746C26.2289 8.59247 25.7507 8.15367 25.7507 8.15367L29.7927 4.43349C30.2739 3.99167 30.9003 3.73949 31.5529 3.72638L37.923 3.59322C38.0885 3.5902 38.2478 3.65677 38.3628 3.7758C38.4778 3.89483 38.5363 4.05724 38.5273 4.22267L37.9815 12.8634Z" fill="#0038C8"/>
</svg>
